<svg xmlns="http://www.w3.org/2000/svg" width="186" height="180" viewBox="0 0 186 180">
  <title>Dashboard Logo</title>
  <desc>Created with Sketch by Ken A. Chan.</desc>
  <path fill-rule="evenodd" d="M67.703811,0.481682242 L76.1939533,12.8741942 C81.9201442,11.5726564 87.8798141,10.885406 94,10.885406 C99.8116529,10.885406 105.478566,11.5051111 110.938264,12.6820462 L119.131576,0.721527759 C121.276247,1.34822648 123.388837,2.05010611 125.466301,2.82412114 L125.068868,17.1423215 C136.08718,21.790133 145.846746,28.8352911 153.694111,37.624342 L166.533488,33.0557928 C167.945471,34.8764733 169.291331,36.7510054 170.567464,38.6757862 L162.370438,49.3241036 C168.49378,59.3757766 172.462852,70.8839722 173.636308,83.2073435 L185.947122,86.8340112 C185.982281,87.8850155 186,88.9404385 186,90 C186,91.3222892 185.972404,92.638133 185.917757,93.9469869 L173.727434,97.5367974 C172.700115,110.018393 168.807518,121.687885 162.708811,131.886105 L170.292013,141.737279 C168.955581,143.729871 167.544137,145.667925 166.061724,147.547401 L154.365481,143.38492 C146.412818,152.521373 136.420036,159.835184 125.096771,164.616714 L125.445257,177.183717 C123.232369,178.007574 120.979648,178.749592 118.690772,179.406092 L111.533496,168.958064 C105.890828,170.219776 100.023147,170.885406 94,170.885406 C87.6688044,170.885406 81.509384,170.149949 75.6025118,168.759808 L68.1473758,179.642216 C65.9114624,179.023682 63.709363,178.323737 61.5444686,177.545772 L61.9147821,164.191414 C50.8869747,159.357794 41.1586872,152.10868 33.399233,143.113388 L20.1577999,147.824642 C18.7679511,146.076176 17.4397285,144.276526 16.1764171,142.428976 L24.8573081,131.151707 C19.0562902,121.212047 15.3372294,109.908542 14.2980204,97.8390859 L0.0702286949,93.6478228 C0.0235526761,92.4376691 0,91.2215851 0,90 C0,89.0401385 0.0145415266,88.0836733 0.0434162989,87.1308128 L14.3931101,82.9044837 C15.5729835,70.9919876 19.3659334,59.8477986 25.1907532,50.0531233 L15.8974727,37.98131 C17.1002521,36.2020306 18.3630001,34.466615 19.682816,32.7779635 L34.0656274,37.8946549 C41.7191552,29.2447613 51.2163143,22.2639454 61.9417121,17.5675998 L61.5234664,2.46177812 C63.551834,1.73232084 65.6128788,1.07135891 67.703811,0.481682242 Z M61.071374,98.5008757 L30.4349219,98.5010832 C33.8420161,127.685771 56.8841208,150.874123 85.9999397,154.504842 L86.0000722,123.053498 C73.81555,120.115008 64.1895057,110.614322 61.071374,98.5008757 Z M157.565078,98.5010832 L126.928626,98.5008757 C123.81058,110.613991 114.184976,120.114489 102.000927,123.053257 L102.001059,154.504718 C131.116406,150.873593 154.158023,127.685438 157.565078,98.5010832 Z M94,73 C84.6111593,73 77,80.6111593 77,90 C77,99.3888407 84.6111593,107 94,107 C103.388841,107 111,99.3888407 111,90 C111,80.6111593 103.388841,73 94,73 Z M85.9999397,27.4951576 C57.2170165,31.084365 34.3697139,53.7865373 30.559467,82.5002392 L60.8299098,82.5001763 C63.6641671,69.910991 73.4818521,59.9654686 86.0000722,56.9465016 L85.9999397,27.4951576 Z M102.001059,27.4952821 L102.000927,56.9467426 C114.51867,59.9659977 124.335908,69.9113259 127.17009,82.5001763 L157.440533,82.5002392 C153.63033,53.7868694 130.783512,31.0848902 102.001059,27.4952821 Z"/>
</svg>
